<mxfile host="app.diagrams.net" modified="2024-04-01T03:09:50.734Z" agent="Mozilla/5.0 (Windows NT 10.0; Win64; x64) AppleWebKit/537.36 (KHTML, like Gecko) Chrome/122.0.0.0 Safari/537.36" etag="JsoD0KJpPjttRLWQjZDH" version="24.2.1" type="github">
  <diagram name="Trang-1" id="vFqFXBQIAcSsahpNVur5">
    <mxGraphModel dx="1434" dy="746" grid="1" gridSize="10" guides="1" tooltips="1" connect="1" arrows="1" fold="1" page="1" pageScale="1" pageWidth="827" pageHeight="1169" math="0" shadow="0">
      <root>
        <mxCell id="0" />
        <mxCell id="1" parent="0" />
        <mxCell id="02ks1m-Wv8nLbxvkmVMU-1" value="Star" style="ellipse;whiteSpace=wrap;html=1;" vertex="1" parent="1">
          <mxGeometry x="50" y="70" width="120" height="80" as="geometry" />
        </mxCell>
        <mxCell id="02ks1m-Wv8nLbxvkmVMU-2" value="" style="endArrow=classic;html=1;rounded=0;" edge="1" parent="1" target="02ks1m-Wv8nLbxvkmVMU-3">
          <mxGeometry width="50" height="50" relative="1" as="geometry">
            <mxPoint x="109.5" y="150" as="sourcePoint" />
            <mxPoint x="109.5" y="230" as="targetPoint" />
          </mxGeometry>
        </mxCell>
        <mxCell id="02ks1m-Wv8nLbxvkmVMU-3" value="Khai báo int cho a,b,c,d" style="whiteSpace=wrap;html=1;aspect=fixed;" vertex="1" parent="1">
          <mxGeometry x="50" y="190" width="120" height="120" as="geometry" />
        </mxCell>
        <mxCell id="02ks1m-Wv8nLbxvkmVMU-4" value="" style="endArrow=classic;html=1;rounded=0;" edge="1" parent="1" target="02ks1m-Wv8nLbxvkmVMU-5">
          <mxGeometry width="50" height="50" relative="1" as="geometry">
            <mxPoint x="170" y="249.5" as="sourcePoint" />
            <mxPoint x="250" y="249.5" as="targetPoint" />
          </mxGeometry>
        </mxCell>
        <mxCell id="02ks1m-Wv8nLbxvkmVMU-5" value="Input a,b,c" style="whiteSpace=wrap;html=1;aspect=fixed;" vertex="1" parent="1">
          <mxGeometry x="260" y="194.75" width="110.5" height="110.5" as="geometry" />
        </mxCell>
        <mxCell id="02ks1m-Wv8nLbxvkmVMU-6" value="" style="endArrow=classic;html=1;rounded=0;" edge="1" parent="1" target="02ks1m-Wv8nLbxvkmVMU-7">
          <mxGeometry width="50" height="50" relative="1" as="geometry">
            <mxPoint x="370.5" y="249.5" as="sourcePoint" />
            <mxPoint x="430.5" y="249.5" as="targetPoint" />
          </mxGeometry>
        </mxCell>
        <mxCell id="02ks1m-Wv8nLbxvkmVMU-7" value="d = a+b+c" style="whiteSpace=wrap;html=1;aspect=fixed;" vertex="1" parent="1">
          <mxGeometry x="450" y="194.75" width="110.5" height="110.5" as="geometry" />
        </mxCell>
        <mxCell id="02ks1m-Wv8nLbxvkmVMU-8" value="" style="endArrow=classic;html=1;rounded=0;" edge="1" parent="1" target="02ks1m-Wv8nLbxvkmVMU-9">
          <mxGeometry width="50" height="50" relative="1" as="geometry">
            <mxPoint x="504.75" y="305.25" as="sourcePoint" />
            <mxPoint x="504.75" y="385.25" as="targetPoint" />
          </mxGeometry>
        </mxCell>
        <mxCell id="02ks1m-Wv8nLbxvkmVMU-9" value="Output d" style="rounded=0;whiteSpace=wrap;html=1;" vertex="1" parent="1">
          <mxGeometry x="432.88" y="355.25" width="144.75" height="74.75" as="geometry" />
        </mxCell>
        <mxCell id="02ks1m-Wv8nLbxvkmVMU-10" value="" style="endArrow=classic;html=1;rounded=0;" edge="1" parent="1">
          <mxGeometry width="50" height="50" relative="1" as="geometry">
            <mxPoint x="432.88" y="400" as="sourcePoint" />
            <mxPoint x="342.88" y="400" as="targetPoint" />
          </mxGeometry>
        </mxCell>
        <mxCell id="02ks1m-Wv8nLbxvkmVMU-11" value="end" style="ellipse;whiteSpace=wrap;html=1;" vertex="1" parent="1">
          <mxGeometry x="220" y="360" width="120" height="80" as="geometry" />
        </mxCell>
        <mxCell id="02ks1m-Wv8nLbxvkmVMU-12" value="" style="endArrow=none;dashed=1;html=1;dashPattern=1 3;strokeWidth=2;rounded=0;entryX=0.145;entryY=1.052;entryDx=0;entryDy=0;entryPerimeter=0;" edge="1" parent="1">
          <mxGeometry width="50" height="50" relative="1" as="geometry">
            <mxPoint x="577.63" y="399.5" as="sourcePoint" />
            <mxPoint x="653.6525" y="400.4960000000001" as="targetPoint" />
          </mxGeometry>
        </mxCell>
        <mxCell id="02ks1m-Wv8nLbxvkmVMU-13" value="" style="endArrow=none;dashed=1;html=1;dashPattern=1 3;strokeWidth=2;rounded=0;" edge="1" parent="1" target="02ks1m-Wv8nLbxvkmVMU-14">
          <mxGeometry width="50" height="50" relative="1" as="geometry">
            <mxPoint x="660" y="400" as="sourcePoint" />
            <mxPoint x="660" y="320" as="targetPoint" />
          </mxGeometry>
        </mxCell>
        <mxCell id="02ks1m-Wv8nLbxvkmVMU-14" value="Hàm in màn hình d&amp;nbsp;" style="shape=process;whiteSpace=wrap;html=1;backgroundOutline=1;" vertex="1" parent="1">
          <mxGeometry x="600" y="240" width="120" height="80" as="geometry" />
        </mxCell>
        <mxCell id="02ks1m-Wv8nLbxvkmVMU-15" value="Star" style="ellipse;whiteSpace=wrap;html=1;" vertex="1" parent="1">
          <mxGeometry x="50.5" y="490" width="120" height="80" as="geometry" />
        </mxCell>
        <mxCell id="02ks1m-Wv8nLbxvkmVMU-16" value="" style="endArrow=classic;html=1;rounded=0;" edge="1" parent="1" target="02ks1m-Wv8nLbxvkmVMU-17">
          <mxGeometry width="50" height="50" relative="1" as="geometry">
            <mxPoint x="110" y="570" as="sourcePoint" />
            <mxPoint x="110" y="640" as="targetPoint" />
          </mxGeometry>
        </mxCell>
        <mxCell id="02ks1m-Wv8nLbxvkmVMU-17" value="double P,R" style="rounded=0;whiteSpace=wrap;html=1;" vertex="1" parent="1">
          <mxGeometry x="50" y="610" width="120" height="60" as="geometry" />
        </mxCell>
        <mxCell id="02ks1m-Wv8nLbxvkmVMU-18" value="Xuất màn hình&amp;nbsp;" style="rounded=0;whiteSpace=wrap;html=1;" vertex="1" parent="1">
          <mxGeometry x="650.5" y="610" width="120" height="60" as="geometry" />
        </mxCell>
        <mxCell id="02ks1m-Wv8nLbxvkmVMU-19" value="P = 2 * 3,14 * R" style="rounded=0;whiteSpace=wrap;html=1;" vertex="1" parent="1">
          <mxGeometry x="460.5" y="610" width="120" height="60" as="geometry" />
        </mxCell>
        <mxCell id="02ks1m-Wv8nLbxvkmVMU-20" value="Nhập giá trị R" style="rounded=0;whiteSpace=wrap;html=1;" vertex="1" parent="1">
          <mxGeometry x="260.5" y="610" width="120" height="60" as="geometry" />
        </mxCell>
        <mxCell id="02ks1m-Wv8nLbxvkmVMU-21" value="End" style="ellipse;whiteSpace=wrap;html=1;" vertex="1" parent="1">
          <mxGeometry x="650.5" y="740" width="120" height="80" as="geometry" />
        </mxCell>
        <mxCell id="02ks1m-Wv8nLbxvkmVMU-22" value="" style="endArrow=classic;html=1;rounded=0;" edge="1" parent="1">
          <mxGeometry width="50" height="50" relative="1" as="geometry">
            <mxPoint x="710" y="670" as="sourcePoint" />
            <mxPoint x="710" y="740" as="targetPoint" />
          </mxGeometry>
        </mxCell>
        <mxCell id="02ks1m-Wv8nLbxvkmVMU-23" value="" style="endArrow=classic;html=1;rounded=0;" edge="1" parent="1">
          <mxGeometry width="50" height="50" relative="1" as="geometry">
            <mxPoint x="580.5" y="639.5" as="sourcePoint" />
            <mxPoint x="650.5" y="640" as="targetPoint" />
          </mxGeometry>
        </mxCell>
        <mxCell id="02ks1m-Wv8nLbxvkmVMU-24" value="" style="endArrow=classic;html=1;rounded=0;" edge="1" parent="1">
          <mxGeometry width="50" height="50" relative="1" as="geometry">
            <mxPoint x="380.5" y="639.5" as="sourcePoint" />
            <mxPoint x="460.5" y="639.5" as="targetPoint" />
          </mxGeometry>
        </mxCell>
        <mxCell id="02ks1m-Wv8nLbxvkmVMU-25" value="" style="endArrow=classic;html=1;rounded=0;entryX=0;entryY=0.5;entryDx=0;entryDy=0;" edge="1" parent="1" target="02ks1m-Wv8nLbxvkmVMU-20">
          <mxGeometry width="50" height="50" relative="1" as="geometry">
            <mxPoint x="170" y="639.5" as="sourcePoint" />
            <mxPoint x="230" y="639.5" as="targetPoint" />
          </mxGeometry>
        </mxCell>
        <mxCell id="02ks1m-Wv8nLbxvkmVMU-26" value="Xuất Output&amp;nbsp;" style="rounded=0;whiteSpace=wrap;html=1;" vertex="1" parent="1">
          <mxGeometry x="210" y="1040" width="120" height="60" as="geometry" />
        </mxCell>
        <mxCell id="02ks1m-Wv8nLbxvkmVMU-27" value="Output = T1 &amp;gt;= T2" style="rounded=0;whiteSpace=wrap;html=1;" vertex="1" parent="1">
          <mxGeometry x="400" y="1040" width="120" height="60" as="geometry" />
        </mxCell>
        <mxCell id="02ks1m-Wv8nLbxvkmVMU-28" value="T1 = Y ht - Y1&lt;div&gt;T2 = Y ht - Y2&lt;/div&gt;" style="rounded=0;whiteSpace=wrap;html=1;" vertex="1" parent="1">
          <mxGeometry x="570" y="1040" width="120" height="60" as="geometry" />
        </mxCell>
        <mxCell id="02ks1m-Wv8nLbxvkmVMU-29" value="Lấy M, D , Y&amp;nbsp;" style="rounded=0;whiteSpace=wrap;html=1;" vertex="1" parent="1">
          <mxGeometry x="577.63" y="920" width="120" height="60" as="geometry" />
        </mxCell>
        <mxCell id="02ks1m-Wv8nLbxvkmVMU-30" value="Nhập D1, M1,Y1 ,D2 , M2, Y2&amp;nbsp;" style="rounded=0;whiteSpace=wrap;html=1;" vertex="1" parent="1">
          <mxGeometry x="380.5" y="920" width="120" height="60" as="geometry" />
        </mxCell>
        <mxCell id="02ks1m-Wv8nLbxvkmVMU-31" value="D2, M2 ,Y2" style="rounded=0;whiteSpace=wrap;html=1;" vertex="1" parent="1">
          <mxGeometry x="200" y="920" width="120" height="60" as="geometry" />
        </mxCell>
        <mxCell id="02ks1m-Wv8nLbxvkmVMU-32" value="D1 ,M1, Y1" style="rounded=0;whiteSpace=wrap;html=1;" vertex="1" parent="1">
          <mxGeometry x="20" y="920" width="120" height="60" as="geometry" />
        </mxCell>
        <mxCell id="02ks1m-Wv8nLbxvkmVMU-33" value="End&amp;nbsp;" style="ellipse;whiteSpace=wrap;html=1;" vertex="1" parent="1">
          <mxGeometry x="20" y="1030" width="120" height="80" as="geometry" />
        </mxCell>
        <mxCell id="02ks1m-Wv8nLbxvkmVMU-34" value="Star" style="ellipse;whiteSpace=wrap;html=1;" vertex="1" parent="1">
          <mxGeometry x="20" y="780" width="120" height="80" as="geometry" />
        </mxCell>
        <mxCell id="02ks1m-Wv8nLbxvkmVMU-35" value="" style="endArrow=classic;html=1;rounded=0;entryX=1.008;entryY=0.6;entryDx=0;entryDy=0;entryPerimeter=0;" edge="1" parent="1" target="02ks1m-Wv8nLbxvkmVMU-33">
          <mxGeometry width="50" height="50" relative="1" as="geometry">
            <mxPoint x="210" y="1080" as="sourcePoint" />
            <mxPoint x="150" y="1140" as="targetPoint" />
          </mxGeometry>
        </mxCell>
        <mxCell id="02ks1m-Wv8nLbxvkmVMU-36" value="" style="endArrow=classic;html=1;rounded=0;entryX=1.033;entryY=0.65;entryDx=0;entryDy=0;entryPerimeter=0;" edge="1" parent="1" target="02ks1m-Wv8nLbxvkmVMU-26">
          <mxGeometry width="50" height="50" relative="1" as="geometry">
            <mxPoint x="400" y="1080" as="sourcePoint" />
            <mxPoint x="450" y="1030" as="targetPoint" />
          </mxGeometry>
        </mxCell>
        <mxCell id="02ks1m-Wv8nLbxvkmVMU-37" value="" style="endArrow=classic;html=1;rounded=0;entryX=1;entryY=0.5;entryDx=0;entryDy=0;" edge="1" parent="1" target="02ks1m-Wv8nLbxvkmVMU-27">
          <mxGeometry width="50" height="50" relative="1" as="geometry">
            <mxPoint x="570" y="1070" as="sourcePoint" />
            <mxPoint x="620" y="1020" as="targetPoint" />
          </mxGeometry>
        </mxCell>
        <mxCell id="02ks1m-Wv8nLbxvkmVMU-38" value="" style="endArrow=classic;html=1;rounded=0;entryX=0.5;entryY=0;entryDx=0;entryDy=0;" edge="1" parent="1" target="02ks1m-Wv8nLbxvkmVMU-28">
          <mxGeometry width="50" height="50" relative="1" as="geometry">
            <mxPoint x="630" y="980" as="sourcePoint" />
            <mxPoint x="680" y="930" as="targetPoint" />
          </mxGeometry>
        </mxCell>
        <mxCell id="02ks1m-Wv8nLbxvkmVMU-39" value="" style="endArrow=classic;html=1;rounded=0;entryX=-0.005;entryY=0.65;entryDx=0;entryDy=0;entryPerimeter=0;" edge="1" parent="1" target="02ks1m-Wv8nLbxvkmVMU-29">
          <mxGeometry width="50" height="50" relative="1" as="geometry">
            <mxPoint x="500.5" y="960" as="sourcePoint" />
            <mxPoint x="550.5" y="910" as="targetPoint" />
          </mxGeometry>
        </mxCell>
        <mxCell id="02ks1m-Wv8nLbxvkmVMU-40" value="" style="endArrow=classic;html=1;rounded=0;" edge="1" parent="1">
          <mxGeometry width="50" height="50" relative="1" as="geometry">
            <mxPoint x="320.5" y="960" as="sourcePoint" />
            <mxPoint x="380" y="960" as="targetPoint" />
          </mxGeometry>
        </mxCell>
        <mxCell id="02ks1m-Wv8nLbxvkmVMU-41" value="" style="endArrow=classic;html=1;rounded=0;exitX=1.017;exitY=0.633;exitDx=0;exitDy=0;exitPerimeter=0;entryX=-0.017;entryY=0.65;entryDx=0;entryDy=0;entryPerimeter=0;" edge="1" parent="1" source="02ks1m-Wv8nLbxvkmVMU-32" target="02ks1m-Wv8nLbxvkmVMU-31">
          <mxGeometry width="50" height="50" relative="1" as="geometry">
            <mxPoint x="140" y="960" as="sourcePoint" />
            <mxPoint x="197" y="957" as="targetPoint" />
          </mxGeometry>
        </mxCell>
        <mxCell id="02ks1m-Wv8nLbxvkmVMU-42" value="" style="endArrow=classic;html=1;rounded=0;exitX=0.5;exitY=1;exitDx=0;exitDy=0;" edge="1" parent="1" source="02ks1m-Wv8nLbxvkmVMU-34">
          <mxGeometry width="50" height="50" relative="1" as="geometry">
            <mxPoint x="80" y="870" as="sourcePoint" />
            <mxPoint x="79.5" y="920" as="targetPoint" />
          </mxGeometry>
        </mxCell>
      </root>
    </mxGraphModel>
  </diagram>
</mxfile>
